HIERARCHY
ROOT Hips
{
	OFFSET 0.000000 0.000000 0.000000 
	CHANNELS 6 Xposition Yposition Zposition Yrotation Zrotation Xrotation 
	JOINT Lumbar
	{
		OFFSET 0.000000 0.000000 0.000000 
		CHANNELS 3 Zrotation Xrotation Yrotation
		JOINT Neck
		{
			OFFSET 0.000000 0.445665 0.000000 
			CHANNELS 3 Zrotation Xrotation Yrotation
			End Site
			{
				OFFSET 0.000000 0.227535 0.000000 
			}
		}
		JOINT RightShoulder
		{
			OFFSET 0.019635 0.377685 0.194865 
			CHANNELS 3 Zrotation Xrotation Yrotation
			JOINT RightElbow
			{
				OFFSET 0.000000 -0.243375 0.000000 
				CHANNELS 2 Zrotation Yrotation
				JOINT RightWrist
				{
					OFFSET 0.000000 -0.264825 0.000000 
					CHANNELS 2 Zrotation Xrotation
					End Site
					{
						OFFSET 0.006600 -0.176220 0.000990 
					}
				}
			}
		}
		JOINT LeftShoulder
		{
			OFFSET 0.019635 0.377685 -0.194865 
			CHANNELS 3 Zrotation Xrotation Yrotation
			JOINT LeftElbow
			{
				OFFSET 0.000000 -0.243375 0.000000 
				CHANNELS 2 Zrotation Yrotation
				JOINT LeftWrist
				{
					OFFSET 0.000000 -0.264825 0.000000 
					CHANNELS 2 Zrotation Xrotation
					End Site
					{
						OFFSET 0.006600 -0.176220 -0.000990 
					}
				}
			}
		}
	}
	JOINT RightHip
	{
		OFFSET 0.052140 -0.069960 0.075570 
		CHANNELS 3 Zrotation Xrotation Yrotation
		JOINT RightKnee
		{
			OFFSET 0.000000 -0.402270 0.000000 
			CHANNELS 1 Zrotation
			JOINT RightAnkle
			{
				OFFSET 0.000000 -0.404085 0.000000 
				CHANNELS 3 Zrotation Xrotation Yrotation
				End Site
				{
					OFFSET 0.204105 -0.089430 0.008415 
				}
			}
		}
	}
	JOINT LeftHip
	{
		OFFSET 0.052140 -0.069960 -0.075570 
		CHANNELS 3 Zrotation Xrotation Yrotation
		JOINT LeftKnee
		{
			OFFSET 0.000000 -0.402270 0.000000 
			CHANNELS 1 Zrotation
			JOINT LeftAnkle
			{
				OFFSET 0.000000 -0.404085 0.000000 
				CHANNELS 3 Zrotation Xrotation Yrotation
				End Site
				{
					OFFSET 0.204105 -0.089430 -0.008415 
				}
			}
		}
	}
}
MOTION
Frames: 27
Frame Time: 0.02
-0.00048 0.00086 -0.00199 -78.06578 -30.65653 -2.33357 41.9736 2.60409 -0.82669 -15.81442 1.20049 -0.41099 -7.68848 -7.36875 -13.20439 29.88646 89.9382 5.3283 0.08282 -37.70875 -1.98993 41.65508 33.30005 -169.83336 35.29442 -13.23423 36.64051 -3.19857 -3.03241 -20.44949 -6.7828 -3.85014 -2.63472 37.63733 2.46656 5.71832 -24.80714 -7.08771 4.28499 2.92869
-0.00042 0.0007 -0.00048 -76.94448 -30.55818 -2.21926 42.02403 2.41286 -1.74232 -15.60895 0.91208 -0.41201 -8.57515 -7.51318 -12.78858 29.73514 90.44156 5.49643 0.20067 -36.45661 -0.24655 35.43152 33.15237 -164.11397 33.52725 -12.12654 36.27305 -3.27494 -3.29874 -20.47668 -6.75154 -3.8881 -2.65776 37.50089 2.43812 5.70215 -24.79024 -7.05334 4.21111 2.88506
-0.00037 0.00053 0.00103 -75.82539 -30.46005 -2.10518 42.07456 2.22194 -2.65558 -15.40412 0.62425 -0.41303 -9.46094 -7.65705 -12.37369 29.58435 90.94365 5.66412 0.3182 -35.20697 1.49315 29.22649 33.00776 -158.41044 31.76415 -11.02226 35.90625 -3.35095 -3.56456 -20.50379 -6.72036 -3.92602 -2.68078 37.36468 2.40983 5.68562 -24.77335 -7.01907 4.13739 2.84153
-0.00032 0.00036 0.00253 -74.70731 -30.362 -1.99121 42.12487 2.03125 -3.56848 -15.19928 0.33668 -0.41404 -10.34518 -7.80102 -11.9591 29.4335 91.44548 5.83173 0.43569 -33.95848 3.23147 23.02194 32.86108 -152.70829 30.00214 -9.91798 35.53985 -3.42707 -3.83012 -20.53089 -6.6892 -3.96387 -2.70376 37.22864 2.38148 5.66942 -24.75649 -6.9848 4.06373 2.79803
-0.00026 0.0002 0.00403 -73.58758 -30.26377 -1.87706 42.17499 1.84036 -4.48352 -14.9938 0.04865 -0.41506 -11.2296 -7.9456 -11.54371 29.28211 91.94852 5.9998 0.5535 -32.70797 4.97275 16.79926 32.71001 -146.99122 28.23674 -8.8103 35.17295 -3.5036 -4.09605 -20.55808 -6.65795 -4.00173 -2.72675 37.0924 2.35294 5.65376 -24.73965 -6.95043 3.98992 2.75445
-0.00021 3e-05 0.00554 -72.46994 -30.16583 -1.76314 42.22641 1.64941 -5.39294 -14.79037 -0.23876 -0.41608 -12.11821 -8.08799 -11.12989 29.1326 92.44862 6.16672 0.67043 -31.46024 6.70895 10.63178 32.5788 -141.31661 26.47867 -7.71322 34.80636 -3.57851 -4.36161 -20.58501 -6.62694 -4.03977 -2.74981 36.95626 2.32519 5.63544 -24.72264 -6.91637 3.91639 2.71101
-0.00015 -0.00013 0.00704 -71.34915 -30.06743 -1.64889 42.2751 1.45874 -6.31276 -14.583 -0.52705 -0.41709 -12.9974 -8.2346 -10.71342 28.97943 92.95393 6.33565 0.78899 -30.20841 8.45362 4.35993 32.40867 -135.56244 24.70743 -6.59606 34.4396 -3.65659 -4.62768 -20.61244 -6.59549 -4.07742 -2.77271 36.82013 2.29588 5.6224 -24.70599 -6.88174 3.8424 2.66735
-0.0001 -0.0003 0.00855 -70.23157 -29.96942 -1.53491 42.32639 1.2679 -7.22284 -14.37933 -0.81464 -0.41811 -13.8853 -8.37736 -10.29927 28.8297 93.45473 6.50292 0.90606 -28.96011 10.1902 -1.81551 32.2728 -129.88231 22.94899 -5.49736 34.07291 -3.73174 -4.89316 -20.63937 -6.56444 -4.11541 -2.79574 36.68387 2.26803 5.60466 -24.68902 -6.84762 3.76883 2.62389
-8e-05 -0.00046 0.01007 -69.11601 -29.87197 -1.42132 42.3806 1.0764 -8.12209 -14.17986 -1.10112 -0.41912 -14.78448 -8.51528 -9.88824 28.68386 93.94909 6.66747 1.02128 -27.71636 11.91906 -7.87643 32.1857 -124.28732 21.20262 -4.42101 33.70641 -3.80337 -5.15857 -20.66587 -6.53388 -4.15393 -2.81901 36.54787 2.24185 5.58041 -24.67158 -6.81414 3.69575 2.58063
9e-05 -0.00064 0.01151 -67.98306 -29.77157 -1.30568 42.41725 0.88734 -9.08689 -13.95524 -1.39325 -0.42014 -15.6207 -8.68065 -9.46011 28.51471 94.47773 6.84559 1.14708 -26.44708 13.69894 -14.60646 31.83875 -118.18613 19.37599 -3.21538 33.33913 -3.89544 -5.42636 -20.69538 -6.5005 -4.18973 -2.84114 36.41162 2.20572 5.59132 -24.65659 -6.77702 3.61974 2.53608
-5e-05 -0.00079 0.01314 -66.89073 -29.67722 -1.19428 42.49141 0.69404 -9.91121 -13.78433 -1.67384 -0.42115 -16.58823 -8.78838 -9.06755 28.39532 94.93578 6.9964 1.25061 -25.2315 15.36662 -19.91774 32.02649 -113.164 17.72588 -2.28301 32.97338 -3.94424 -5.68779 -20.71822 -6.47308 -4.23104 -2.86555 36.27512 2.19079 5.52956 -24.63661 -6.74755 3.55002 2.49438
-0.00101 -0.00088 0.01525 -65.87888 -29.60103 -1.09525 42.66559 0.48142 -10.36479 -13.75687 -1.91945 -0.42212 -17.93171 -8.73402 -8.77869 28.40843 95.18377 7.06062 1.29186 -24.16751 16.7614 -21.3559 33.80829 -111.04647 16.50833 -2.10437 32.61262 -3.8742 -5.94224 -20.72525 -6.46218 -4.28954 -2.89739 36.14417 2.2334 5.25442 -24.60146 -6.73948 3.49667 2.45958
-0.00227 -0.00095 0.01757 -64.91419 -29.5306 -1.00041 42.87789 0.266 -10.67466 -13.78414 -2.15404 -0.42307 -19.40311 -8.62242 -8.52522 28.47175 95.36364 7.09939 1.31094 -23.15819 18.03676 -21.36485 36.1035 -110.028 15.47987 -2.20008 32.25325 -3.76054 -6.18792 -20.72514 -6.45726 -4.3532 -2.93131 36.01172 2.29764 4.90928 -24.56175 -6.73899 3.44983 2.42785
-0.0034 -0.00104 0.01983 -63.94735 -29.45659 -0.90304 43.07476 0.05688 -11.04062 -13.78884 -2.39588 -0.42403 -20.80717 -8.53972 -8.25055 28.51544 95.58576 7.15763 1.34099 -22.11912 19.34433 -22.01595 38.081 -108.53686 14.39583 -2.16679 31.8927 -3.66719 -6.43138 -20.72664 -6.44947 -4.41315 -2.9635 35.87602 2.35215 4.60481 -24.52481 -6.7348 3.40052 2.39532
-0.00451 -0.0011 0.02193 -62.89662 -29.38682 -0.80798 43.26404 -0.17353 -11.44497 -13.78362 -2.62843 -0.42499 -22.25478 -8.44516 -7.99424 28.54796 95.76129 7.18323 1.36734 -21.09451 20.74606 -22.69906 40.41588 -106.91371 13.17474 -2.14941 31.53444 -3.57253 -6.70292 -20.73495 -6.44225 -4.47888 -2.999 35.7573 2.40541 4.2612 -24.48408 -6.73178 3.349 2.36023
-0.00574 -0.00121 0.02443 -62.03506 -29.30936 -0.70953 43.47774 -0.3602 -11.73559 -13.81242 -2.87745 -0.42594 -23.63646 -8.36119 -7.71224 28.61292 96.01616 7.26981 1.39597 -20.06071 21.92178 -22.97193 42.12799 -105.85242 12.29557 -2.16753 31.17178 -3.46922 -6.91152 -20.72747 -6.43538 -4.5338 -3.02814 35.6024 2.46748 3.98453 -24.4512 -6.72803 3.30382 2.33127
-0.00716 -0.00142 0.02794 -61.65602 -29.21213 -0.59744 43.7529 -0.4256 -11.74481 -13.91729 -3.17661 -0.42687 -24.85062 -8.32491 -7.31571 28.77872 96.51927 7.53871 1.4378 -18.9201 22.51655 -22.50901 41.99526 -105.82872 12.20773 -2.18246 30.79757 -3.36191 -6.97037 -20.67759 -6.42671 -4.55742 -3.03862 35.35469 2.53949 3.89227 -24.43475 -6.7211 3.27292 2.31782
-0.00869 -0.00169 0.03186 -61.47075 -29.10705 -0.48258 44.05053 -0.44665 -11.64485 -14.05467 -3.49206 -0.42778 -25.98469 -8.30022 -6.89919 28.97136 97.10153 7.86794 1.48239 -17.78116 22.88558 -21.67521 41.21944 -106.36693 12.4726 -2.22838 30.41957 -3.24578 -6.96329 -20.6123 -6.41829 -4.56991 -3.04266 35.07125 2.62142 3.87259 -24.42923 -6.71311 3.24853 2.31059
-0.01019 -0.00195 0.03564 -61.21561 -29.0029 -0.37089 44.33588 -0.48809 -11.59684 -14.18093 -3.79915 -0.4287 -27.12627 -8.26761 -6.51401 29.13584 97.64027 8.16512 1.52477 -16.68594 23.3487 -20.97938 40.73547 -106.82209 12.65176 -2.28434 30.04159 -3.1275 -6.97051 -20.55426 -6.41074 -4.58779 -3.05017 34.79738 2.70461 3.83182 -24.42073 -6.70505 3.22218 2.30092
-0.01161 -0.00214 0.03926 -60.88633 -28.90752 -0.25055 44.63194 -0.52938 -11.53478 -14.29636 -4.11114 -0.42962 -28.3973 -8.24511 -6.03378 29.36812 98.21146 8.48294 1.5705 -15.40439 23.84295 -20.35857 40.26438 -106.63321 12.54191 -2.25437 29.66731 -3.03326 -7.0386 -20.49437 -6.39972 -4.6049 -3.05579 34.5439 2.7637 3.7404 -24.39677 -6.69924 3.19167 2.28962
-0.01322 -0.00248 0.04329 -60.75562 -28.79514 -0.14843 44.9097 -0.55947 -11.4769 -14.43796 -4.41537 -0.43055 -29.37423 -8.20393 -5.74923 29.46657 98.73103 8.76996 1.61011 -14.51119 24.22103 -19.51728 39.61552 -107.84838 13.09114 -2.39922 29.28881 -2.88796 -6.97054 -20.43545 -6.3953 -4.62031 -3.06336 34.2492 2.87568 3.77012 -24.41634 -6.68879 3.17147 2.28327
-0.01527 -0.00317 0.04854 -61.13557 -28.61039 -0.08964 45.13663 -0.57739 -11.46682 -14.67126 -4.70796 -0.43153 -29.58923 -8.1181 -5.98553 29.17381 99.12686 8.97997 1.63394 -14.68388 24.32726 -18.11942 38.5564 -113.2919 15.58435 -3.08747 28.86196 -2.59889 -6.48928 -20.37706 -6.41442 -4.63909 -3.08178 33.76903 3.12561 4.13742 -24.48244 -6.66291 3.17647 2.28821
-0.0175 -0.004 0.05416 -61.70593 -28.41393 -0.05082 45.34209 -0.58392 -11.4638 -14.92337 -4.98991 -0.43255 -29.50403 -8.01149 -6.42425 28.74774 99.4655 9.15377 1.65201 -15.24713 24.3258 -16.52666 37.35135 -120.03844 18.69079 -3.93748 28.43802 -2.25959 -5.88299 -20.32121 -6.43923 -4.65561 -3.10171 33.26546 3.42918 4.61992 -24.60742 -6.63317 3.19188 2.29809
-0.01966 -0.0048 0.0595 -62.18333 -28.24066 -0.00771 45.55515 -0.59066 -11.45184 -15.14989 -5.26742 -0.43352 -29.53637 -7.90838 -6.78554 28.39263 99.80022 9.32804 1.6707 -15.63666 24.37882 -15.05588 36.26203 -125.8544 21.37457 -4.66599 28.0374 -1.94708 -5.36934 -20.26822 -6.45775 -4.66949 -3.11827 32.82303 3.71203 5.03718 -24.74927 -6.60669 3.20358 2.30625
-0.02176 -0.00547 0.06532 -62.6974 -27.99143 0.05624 45.78265 -0.61746 -11.45961 -15.45366 -5.58359 -0.43451 -29.64833 -7.83101 -7.08291 27.99569 100.24638 9.56781 1.69493 -16.01482 24.40191 -13.43108 34.94591 -133.09384 24.66894 -5.59414 27.53256 -1.61865 -4.70332 -20.19815 -6.49151 -4.69803 -3.14564 32.15865 3.9806 5.51405 -24.69839 -6.5727 3.21124 2.31234
-0.02403 -0.00643 0.07024 -63.17435 -27.89806 0.07133 45.96902 -0.59955 -11.4301 -15.5954 -5.81783 -0.43563 -29.52094 -7.69459 -7.56397 27.6526 100.46784 9.6669 1.70997 -16.50379 24.46296 -12.08469 34.07093 -137.70242 26.84467 -6.14971 27.2456 -1.31012 -4.32436 -20.16394 -6.49538 -4.69622 -3.15131 31.96084 4.29053 5.88978 -25.07394 -6.55485 3.22964 2.3239
-0.0267 -0.00818 0.07258 -63.53097 -28.2355 -0.03738 46.09584 -0.46813 -11.28933 -15.32914 -5.81709 -0.43558 -28.8345 -7.40477 -8.47974 27.50163 99.88008 9.33894 1.66646 -17.25125 24.67073 -11.56809 34.49399 -134.44398 25.67365 -5.5906 27.55909 -1.08225 -4.78151 -20.23265 -6.41102 -4.60631 -3.09333 32.97644 4.70844 5.98875 -26.51224 -6.57007 3.27584 2.34893
